<svg width="42" height="42" viewBox="0 0 42 42" fill="none" xmlns="http://www.w3.org/2000/svg">
<path d="M5.25 36.0325L11.5325 29.75H31.5C32.4283 29.75 33.3185 29.3813 33.9749 28.7249C34.6313 28.0685 35 27.1783 35 26.25V10.5C35 9.57174 34.6313 8.6815 33.9749 8.02513C33.3185 7.36875 32.4283 7 31.5 7H8.75C7.82174 7 6.9315 7.36875 6.27513 8.02513C5.61875 8.6815 5.25 9.57174 5.25 10.5V36.0325ZM5.25 38.5H3.5V10.5C3.5 9.10761 4.05312 7.77226 5.03769 6.78769C6.02226 5.80312 7.35761 5.25 8.75 5.25H31.5C32.8924 5.25 34.2277 5.80312 35.2123 6.78769C36.1969 7.77226 36.75 9.10761 36.75 10.5V26.25C36.75 27.6424 36.1969 28.9777 35.2123 29.9623C34.2277 30.9469 32.8924 31.5 31.5 31.5H12.25L5.25 38.5ZM10.5 12.25H29.75V14H10.5V12.25ZM10.5 17.5H29.75V19.25H10.5V17.5ZM10.5 22.75H24.5V24.5H10.5V22.75Z" fill="white"/>
</svg>
