<?xml version="1.0" standalone="no"?>
<!DOCTYPE svg PUBLIC "-//W3C//DTD SVG 20010904//EN"
 "http://www.w3.org/TR/2001/REC-SVG-20010904/DTD/svg10.dtd">
<svg version="1.0" xmlns="http://www.w3.org/2000/svg"
 width="48.000000pt" height="42.000000pt" viewBox="23 0 48 42"
 preserveAspectRatio="xMidYMid meet">
<g transform="translate(0.000000,65.000000) scale(0.100000,-0.100000)"
fill="red" stroke="none">
<path d="M390 618 c-32 -17 -48 -32 -55 -55 -6 -18 -21 -43 -33 -56 -28 -30
-37 -76 -22 -121 13 -40 52 -76 83 -76 12 0 35 -14 52 -30 43 -42 88 -47 145
-18 31 16 48 32 55 53 6 17 20 43 32 59 29 37 36 61 29 101 -9 46 -40 81 -84
95 -20 7 -49 23 -63 37 -38 35 -85 39 -139 11z m128 -30 c16 -16 15 -28 -1
-28 -21 0 -44 -31 -59 -75 -13 -37 -16 -40 -48 -38 -34 1 -60 23 -60 50 0 20
30 28 51 15 22 -14 49 -16 49 -3 0 22 -13 40 -24 34 -15 -10 -76 -12 -76 -3 0
11 33 38 60 49 35 14 94 13 108 -1z m87 -51 c29 -24 43 -85 31 -133 l-7 -27
-19 31 c-23 37 -48 52 -89 52 -27 0 -31 3 -31 28 0 32 32 68 51 56 9 -5 8 -10
-3 -18 -14 -10 -14 -14 -2 -30 11 -16 16 -17 29 -6 11 9 13 16 5 24 -13 13
-13 46 -1 46 6 0 22 -10 36 -23z m-226 -106 c11 -6 33 -11 50 -11 26 0 31 -4
31 -23 0 -25 -26 -67 -41 -67 -6 0 -8 12 -4 29 8 35 -10 50 -33 27 -11 -10
-12 -16 -4 -16 7 0 12 -11 12 -25 0 -31 -11 -32 -46 -2 -21 18 -28 35 -32 75
-2 28 -1 59 2 69 6 14 10 12 26 -14 10 -18 28 -37 39 -42z m203 -18 c29 -26
23 -53 -13 -53 -16 0 -28 4 -25 9 3 5 -5 11 -19 13 -15 3 -25 1 -25 -6 0 -23
16 -32 57 -32 48 1 52 -5 23 -32 -33 -30 -97 -46 -131 -32 -36 15 -36 21 1 48
17 13 34 39 41 62 11 35 16 40 42 40 17 0 39 -7 49 -17z"/>
</g>
</svg>
