<svg width="42" height="42" viewBox="0 0 42 42" fill="none" xmlns="http://www.w3.org/2000/svg">
<path d="M27.7723 25.9927C27.7709 26.2759 27.658 26.5471 27.458 26.7476C27.258 26.948 26.9871 27.0616 26.7039 27.0637H15.2931C15.009 27.0637 14.7366 26.9509 14.5357 26.75C14.3349 26.5492 14.2221 26.2767 14.2221 25.9927C14.2221 25.7087 14.3349 25.4362 14.5357 25.2354C14.7366 25.0345 15.009 24.9217 15.2931 24.9217H26.7039C26.9876 24.9231 27.2592 25.0364 27.4597 25.2369C27.6603 25.4375 27.7735 25.7091 27.7749 25.9927M26.7066 19.2176H15.2931C15.0185 19.2312 14.7597 19.3498 14.5702 19.5489C14.3807 19.748 14.2751 20.0124 14.2751 20.2873C14.2751 20.5621 14.3807 20.8265 14.5702 21.0256C14.7597 21.2247 15.0185 21.3433 15.2931 21.3569H26.7039C26.9785 21.3433 27.2373 21.2247 27.4267 21.0256C27.6162 20.8265 27.7219 20.5621 27.7219 20.2873C27.7219 20.0124 27.6162 19.748 27.4267 19.5489C27.2373 19.3498 26.9811 19.2312 26.7066 19.2176ZM36.3324 7.4497V37.4036C36.3328 37.7313 36.2685 38.0558 36.1434 38.3587C36.0182 38.6616 35.8346 38.9368 35.603 39.1686C35.3714 39.4005 35.0963 39.5844 34.7936 39.7099C34.4909 39.8354 34.1664 39.8999 33.8387 39.8999H8.1583C7.49692 39.8999 6.86262 39.6372 6.39495 39.1695C5.92729 38.7019 5.66455 38.0676 5.66455 37.4062V7.44707C5.66421 7.11937 5.72846 6.79481 5.85362 6.49195C5.97879 6.18909 6.16243 5.91387 6.39403 5.68203C6.62563 5.45018 6.90065 5.26626 7.20338 5.14077C7.50611 5.01529 7.8306 4.9507 8.1583 4.9507H14.7864C15.5548 4.05547 16.5076 3.33694 17.5796 2.84433C18.6516 2.35172 19.8174 2.09668 20.9972 2.09668C22.1769 2.09668 23.3427 2.35172 24.4147 2.84433C25.4867 3.33694 26.4396 4.05547 27.2079 4.9507H33.8334C34.1611 4.95035 34.4857 5.0146 34.7886 5.13977C35.0914 5.26494 35.3666 5.44857 35.5985 5.68017C35.8303 5.91177 36.0142 6.1868 36.1397 6.48952C36.2652 6.79225 36.3298 7.11674 36.3298 7.44445M14.9361 10.2978V10.6522H27.0583V10.2978C27.0751 9.49108 26.9307 8.68909 26.6336 7.93887C26.3364 7.18864 25.8926 6.50527 25.328 5.92878C24.7633 5.3523 24.0894 4.8943 23.3455 4.58164C22.6016 4.26897 21.8028 4.10791 20.9959 4.10791C20.1889 4.10791 19.3901 4.26897 18.6463 4.58164C17.9024 4.8943 17.2284 5.3523 16.6638 5.92878C16.0992 6.50527 15.6553 7.18864 15.3582 7.93887C15.061 8.68909 14.9193 9.49108 14.9361 10.2978ZM34.1878 7.44445C34.1878 7.39756 34.1786 7.35114 34.1606 7.30783C34.1427 7.26452 34.1164 7.22516 34.0832 7.19201C34.0501 7.15886 34.0107 7.13256 33.9674 7.11462C33.9241 7.09668 33.8777 7.08745 33.8308 7.08745H28.5414C28.9746 8.1007 29.1977 9.1927 29.1977 10.2978V11.7232C29.1963 12.0068 29.083 12.2784 28.8825 12.479C28.6819 12.6795 28.4103 12.7928 28.1267 12.7942H13.8677C13.5841 12.7928 13.3124 12.6795 13.1119 12.479C12.9113 12.2784 12.7981 12.0068 12.7967 11.7232V10.2978C12.7967 9.19532 13.0198 8.1007 13.4529 7.08745H8.1583C8.11142 7.08745 8.065 7.09668 8.02168 7.11462C7.97837 7.13256 7.93902 7.15886 7.90586 7.19201C7.87271 7.22516 7.84642 7.26452 7.82848 7.30783C7.81054 7.35114 7.8013 7.39756 7.8013 7.44445V37.3983C7.8013 37.493 7.83891 37.5838 7.90586 37.6508C7.97282 37.7177 8.06362 37.7553 8.1583 37.7553H33.8334C33.9281 37.7553 34.0189 37.7177 34.0859 37.6508C34.1528 37.5838 34.1904 37.493 34.1904 37.3983L34.1878 7.44445Z" fill="white"/>
</svg>
