<svg width="15" height="9" viewBox="0 0 15 9" fill="none" xmlns="http://www.w3.org/2000/svg">
<path d="M0.750244 5.25C3.45024 -0.75 11.5502 -0.75 14.2502 5.25" stroke="#4E4E4E" stroke-width="1.5" stroke-linecap="round" stroke-linejoin="round"/>
<path d="M7.50024 8.25C7.20477 8.25 6.91219 8.1918 6.63921 8.07873C6.36622 7.96566 6.11819 7.79992 5.90925 7.59099C5.70032 7.38206 5.53459 7.13402 5.42151 6.86104C5.30844 6.58806 5.25024 6.29547 5.25024 6C5.25024 5.70453 5.30844 5.41194 5.42151 5.13896C5.53459 4.86598 5.70032 4.61794 5.90925 4.40901C6.11819 4.20008 6.36622 4.03434 6.63921 3.92127C6.91219 3.8082 7.20477 3.75 7.50024 3.75C8.09698 3.75 8.66928 3.98705 9.09123 4.40901C9.51319 4.83097 9.75024 5.40326 9.75024 6C9.75024 6.59674 9.51319 7.16903 9.09123 7.59099C8.66928 8.01295 8.09698 8.25 7.50024 8.25Z" fill="#4E4E4E" stroke="#4E4E4E" stroke-width="1.5" stroke-linecap="round" stroke-linejoin="round"/>
</svg>
