<svg width="30" height="23" viewBox="0 0 30 23" fill="none" xmlns="http://www.w3.org/2000/svg">
<path d="M8.23327 16.8524L5.82273 21.8752L5.81641 14.7682L29.469 0L8.23327 16.8524Z" fill="#455063"/>
<path opacity="0.13" d="M5.82227 14.8221L20.0285 7.45142L8.16536 16.9936L5.84113 21.7965L5.82227 14.8221Z" fill="#6D6E6F"/>
<path d="M5.82275 21.8752L8.16047 16.9295L29.4167 0.0731201L5.82275 21.8752Z" fill="#3B455A"/>
<path d="M29.4163 0.073204L29.4686 0L29.1929 0.213386L29.4163 0.073204Z" fill="#707F78"/>
<path d="M29.4161 0.0731201L29.1927 0.213302L8.16575 16.8982L8.1416 16.9128L14.9185 22.9999L29.4161 0.0731201Z" fill="#7FC5A3"/>
<path d="M29.4688 0L0 9.59972L5.78226 14.7934L29.1931 0.213386L29.4688 0Z" fill="#7FC5A3"/>
</svg>
