<svg width="75" height="163" viewBox="0 0 75 163" fill="none" xmlns="http://www.w3.org/2000/svg">
<path d="M69.6666 17.873L74.6612 14.3813L73.9508 11.1967L68.8882 12.9421L66.4443 14.535V16.3006L69.6666 17.873Z" fill="#EFBFA5"/>
<path d="M22.2134 152.547C21.698 151.98 21.0965 151.67 20.4167 151.777C19.7639 151.88 19.1768 152.322 18.9077 152.914C18.724 153.318 18.6853 153.768 18.6489 154.208C18.4606 156.486 18.4777 161.896 21.5124 162.675C22.7877 163.002 23.8428 160.964 24.1832 159.819C24.6963 158.093 23.9369 154.445 22.2134 152.547Z" fill="#3B455A"/>
<path d="M23.2927 118.177L23.1337 132.073C23.3185 138.246 22.3545 144.453 22.5393 150.626C22.5818 152.045 22.9515 153.543 22.594 154.95C22.2441 156.326 21.1259 156.569 19.9782 155.872C18.4404 154.939 18.6882 152.758 18.432 151.168C17.7284 146.796 16.9029 142.446 16.1681 138.08C15.8079 135.939 16.5503 132.94 16.389 130.773L14.144 119.127L23.2927 118.177Z" fill="#EFBFA5"/>
<path d="M7.41504 95.7227L13.4633 122.589L14.748 147.961L24.3384 147.746L26.9462 76.7767L8.35476 77.1141L7.41504 95.7227Z" fill="#C4C9CE"/>
<path d="M35.9309 150.911C35.3931 150.373 34.7801 150.099 34.1072 150.246C33.4609 150.387 32.8946 150.864 32.6517 151.473C32.4859 151.887 32.4665 152.34 32.449 152.783C32.3587 155.074 32.6069 160.487 35.6652 161.087C36.9503 161.339 37.9633 160.37 38.2536 159.204C38.6912 157.447 37.7299 152.708 35.9309 150.911Z" fill="#3B455A"/>
<path d="M30.8755 120.127L31.6892 134.001C31.7556 137.857 32.2695 141.683 32.6688 145.512C33.0396 149.07 32.4623 152.775 34.3217 156.01C34.9046 157.025 36.0831 157.7 36.9063 156.468C37.5409 155.518 37.164 153.933 37.2858 152.855C37.7826 148.456 38.402 144.072 38.9303 139.676C39.1892 137.521 38.306 134.56 38.3656 132.389L40.0591 120.65L30.8755 120.127Z" fill="#EFBFA5"/>
<path d="M43.0123 94.0796L43.793 120.16L39.7001 146.533L29.9446 146.825L30.3753 118.282L25.2129 94.6121L23.48 79.1184L38.9593 77.2925L43.0123 94.0796Z" fill="#C4C9CE"/>
<path d="M30.7666 23.9179L14.0899 23.5198L4.4209 41.5021L7.85757 58.3454L8.46976 78.5017L32.2582 78.8266L40.0853 77.5555L38.007 56.0189L39.0955 29.7392L30.7666 23.9179Z" fill="#EBB044"/>
<path d="M13.5372 24.7601L0 45.379L2.0343 56.8656L23.0009 71.3896L26.9461 67.9404L12.9292 50.2211L13.4731 39.0238L13.5372 24.7601Z" fill="#EBB044"/>
<path d="M29.7568 35.5597L45.7804 41.3374L55.0527 39.0556L71.0763 18.0317L65.4956 15.6012L48.6667 30.0531L33.4345 25.4892L29.7568 35.5597Z" fill="#EBB044"/>
<path d="M19.0239 23.8226L24.1973 31.1347L26.6294 30.9355L30.6828 23.5198L19.0239 23.8226Z" fill="#D34E4E"/>
<path d="M23.1224 68.817L23.0317 71.6298L27.9968 73.4371L30.8581 71.2688L30.86 67.9946L28.0974 67.8405L28.0108 67.1202L27.1064 66.5383L23.1224 68.817Z" fill="#EFBFA5"/>
<path d="M25.1344 9.14409C26.2168 8.18994 27.4533 8.01688 28.8329 8.00626C29.4846 8.00132 29.7028 8.16983 30.0387 8.11062C30.1897 8.08406 30.3647 8.01194 30.6133 7.85671C31.1071 7.54929 31.5473 6.74507 31.7785 6.08923C33.0575 6.8984 33.9881 8.35922 34.2447 10.5844C34.5233 13.0032 34.5191 15.5548 33.6902 17.9751C32.8613 20.3954 31.0919 22.6711 28.7969 23.569C28.6629 23.6214 28.5304 23.6673 28.3983 23.7102C27.4146 24.0309 26.4813 24.0977 25.6148 23.9588L22.7213 22.58C22.5774 22.4574 22.4378 22.3283 22.3019 22.1932C21.3512 18.0764 22.3816 11.5712 25.1344 9.14409Z" fill="#EFBFA5"/>
<path d="M1.09873 58.9655C1.3181 60.2518 1.98114 61.4151 2.89089 62.3582C2.96338 61.9145 3.03929 61.4743 3.11861 61.0374C3.03929 61.4743 2.96376 61.9145 2.89089 62.3582C3.47916 62.9677 4.16954 63.4862 4.91304 63.8839C6.80767 64.8969 9.00442 65.2153 11.153 65.2123C12.8726 65.2096 14.6162 65.0142 16.296 65.3823C17.9758 65.7505 19.6393 66.8447 20.064 68.5108C20.2986 69.4304 20.2219 70.5857 21.017 71.1042C21.3901 71.3475 21.8607 71.3679 22.3059 71.3805C23.6666 71.4196 25.2116 71.3839 26.1256 70.3751C27.5397 68.8133 26.7138 65.6806 28.6244 64.7929C29.1842 64.5329 29.8306 64.5728 30.4393 64.4699C33.0247 64.0327 34.2893 61.1076 34.0407 58.4228C33.9895 57.8664 33.8745 57.3203 33.6908 56.8087C32.6228 53.8286 30.1475 51.6174 28.273 49.0662C24.6131 44.0859 22.1389 37.4319 24.3892 31.5378C24.601 30.9833 24.8386 30.4265 24.9862 29.8542C25.0674 29.5395 25.1224 29.2204 25.1285 28.894C25.1612 27.136 23.8533 25.6888 23.0077 24.1471C22.9287 24.0033 22.8544 23.8515 22.7845 23.6924C22.6137 23.3038 22.471 22.87 22.3534 22.4047C22.3355 22.3349 22.3188 22.2646 22.3021 22.1933C19.7065 19.6045 18.6662 14.795 20.3745 11.2012C18.6658 14.7954 19.7065 19.6045 22.3021 22.1933C21.3518 18.0761 22.3818 11.5713 25.1346 9.14379C26.217 8.18964 27.4535 8.01658 28.8331 8.00595C29.4852 8.00101 29.703 8.16953 30.0393 8.11032C30.1904 8.08375 30.3649 8.01126 30.6139 7.85641C31.1077 7.54899 31.5479 6.74476 31.7791 6.08893C33.0581 6.89809 33.9891 8.35892 34.2453 10.5841C34.5243 13.0029 34.5197 15.5545 33.6908 17.9748C32.8619 20.3951 31.0925 22.6707 28.7971 23.5687C28.6631 23.6211 28.5307 23.667 28.3986 23.7099C28.5128 23.916 28.6567 24.1225 28.8438 24.3282C30.1004 25.7108 32.1173 26.0319 33.9701 26.271C34.1948 26.2998 34.4305 26.3279 34.6419 26.2456C34.9896 26.1105 35.1683 25.7078 35.1714 25.3347C35.174 24.9616 35.04 24.6033 34.9372 24.245C33.8604 20.4953 35.7684 16.2122 36.0864 12.4321C36.4041 8.65912 35.6253 4.55372 32.597 2.00287C32.0831 2.14368 31.584 2.33723 31.1077 2.57558C31.0602 2.51257 31.0117 2.45034 30.9612 2.38999C26.5776 -2.87376 20.3885 1.62599 17.0593 5.64563C14.3148 8.95896 12.027 12.7638 10.9776 16.9683C9.99614 20.9006 9.6686 26.6794 10.0838 30.699C10.326 33.0457 11.2543 35.3487 11.7446 37.6468C12.0498 39.0768 12.1864 40.505 11.8817 41.9412C11.2471 44.9311 8.88069 47.1241 6.57046 49.2005C6.3602 49.7398 6.1507 50.2868 5.94234 50.8416C5.73435 51.3965 5.52713 51.959 5.3218 52.5302C5.18934 52.8979 5.06144 53.2718 4.93695 53.6517C5.06106 53.2718 5.18934 52.8979 5.3218 52.5302C5.52713 51.9593 5.73397 51.3965 5.94234 50.8416C6.1507 50.2868 6.3602 49.7398 6.57046 49.2005C6.2509 49.4878 5.93247 49.7729 5.61935 50.0571C3.04536 52.3992 0.513868 55.5357 1.09873 58.9655ZM24.1474 6.86431C24.489 6.63849 24.8393 6.43506 25.1946 6.25592C24.8393 6.43544 24.4894 6.63849 24.1474 6.86431Z" fill="#333E51"/>
</svg>
