<svg width="56" height="191" viewBox="0 0 56 191" fill="none" xmlns="http://www.w3.org/2000/svg">
<path d="M51.7304 110.6L50.0028 142.727L46.7794 186.096L41.9554 186.439L36.0946 147.049L27.9873 113.718L51.7304 110.6Z" fill="#3B455A"/>
<path d="M42.1274 188.471L47.5287 190.708L49.9517 187.915L47.1581 185.492L41.9419 185.862L42.1274 188.471Z" fill="#474EBB"/>
<path d="M14.7562 108.195L13.6978 127.475L16.8385 184.8L21.6685 185.042L28.9071 147.443L35.2922 106.212L14.7562 108.195Z" fill="#3B455A"/>
<path d="M21.5387 185.946L16.1851 188.297L13.7041 186.686L16.4465 184.205L21.6692 184.466L21.5387 185.946Z" fill="#474EBB"/>
<path d="M40.9914 48.9861L25.8659 47.9937C25.8659 47.9937 17.5253 49.2345 12.6615 69.3642C9.9555 80.5633 9.71195 98.0424 10.0287 111.347C10.4627 113.229 12.8716 121.452 21.5503 119.682C36.4543 116.643 44.3404 113.894 50.9242 114.834C56.5399 115.815 55.7531 108.171 54.9003 102.349L51.936 84.3456L40.9914 48.9861Z" fill="#8EC3CB"/>
<path d="M37.3104 30.361C33.48 29.6808 29.5426 29.0924 25.7741 30.0013C24.9486 30.2005 24.0673 30.5268 23.6455 31.2639C23.482 31.5495 23.4027 31.8742 23.3306 32.1952C22.5187 35.7991 21.5203 41.1329 24.0021 44.3199C24.4755 44.9277 25.0969 45.4 25.7593 45.7771C26.6447 46.2809 27.6159 46.6086 28.6124 46.763C28.4444 47.6576 28.1955 48.5369 27.8693 49.3867C28.7922 50.661 32.8522 50.6511 33.5498 49.3639C33.5468 48.2752 33.5441 47.1868 33.5415 46.098C34.0267 45.8784 34.4933 45.6162 34.9288 45.3033C36.6143 44.0908 37.6841 42.3124 38.2672 40.348C38.9022 38.2092 39.8351 36.1622 40.406 33.9854C40.6139 33.1922 40.7668 32.2908 40.3256 31.5996C39.8559 30.864 38.8984 30.6463 38.0396 30.4919C37.7964 30.4478 37.5536 30.4042 37.3104 30.361Z" fill="#B97262"/>
<path d="M24.7609 32.9202C26.5872 31.6365 29.3804 31.001 31.1497 31.056C36.4987 31.2226 38.614 35.0583 39.1011 39.9502C40.4934 38.0222 43.1539 35.5598 43.221 33.1497C43.276 31.1774 42.8936 28.5063 41.7218 26.8535C40.625 25.3068 37.9528 24.5424 36.347 23.6862C34.8333 22.8789 33.3197 22.0716 31.8057 21.2647C31.4908 21.0967 31.1672 20.9259 30.8136 20.8797C30.3952 20.8247 29.9764 20.9483 29.5723 21.0709C26.1164 22.1175 22.6608 23.1646 19.2048 24.2116C18.5409 24.4127 17.7867 24.6976 17.5663 25.3554C17.432 25.7556 17.5386 26.1919 17.6456 26.6001C18.1168 28.3971 18.9548 30.2192 19.2188 32.0481C19.476 33.1065 20.3383 38.5499 22.2017 37.8409C22.7192 36.9107 22.7564 35.7897 23.1483 34.8003C23.4385 34.0682 24.02 33.4407 24.7609 32.9202Z" fill="#3B455A"/>
<path d="M25.866 47.9937L20.3702 49.9174L0.920711 72.0512L0 79.1191L10.3797 94.7632L12.761 88.7738L8.15817 77.0857L14.5022 72.2185L22.4058 52.2573L25.866 47.9937Z" fill="#8EC3CB"/>
<path d="M37.8511 50.4058L47.741 38.7962L44.0525 8.58882L48.5187 6.40332L55.9739 36.893L54.3965 44.6335L43.452 61.1213L37.8511 50.4058Z" fill="#8EC3CB"/>
<path d="M47.562 6.87099L47.4474 4.09635L44.0772 0L41.9702 2.04248L43.5578 5.74012L42.705 7.07129L44.0518 8.58874L47.562 6.87099Z" fill="#B97262"/>
</svg>
