<svg xmlns="http://www.w3.org/2000/svg" xmlns:xlink="http://www.w3.org/1999/xlink" width="500" zoomAndPan="magnify" viewBox="0 0 375 374.999991" height="500" preserveAspectRatio="xMidYMid meet" version="1.0"><defs><clipPath id="a97f9f4cae"><path d="M 66.613281 59.238281 L 198 59.238281 L 198 315.738281 L 66.613281 315.738281 Z M 66.613281 59.238281 " clip-rule="nonzero"/></clipPath><clipPath id="c45e7c3e44"><path d="M 196 164 L 308.113281 164 L 308.113281 278 L 196 278 Z M 196 164 " clip-rule="nonzero"/></clipPath></defs><rect x="-37.5" width="450" fill="#FFFFFF00" y="-37.499999" height="449.999989" fill-opacity="1"/><rect x="-37.5" width="450" fill="#FFFFFF00" y="-37.499999" height="449.999989" fill-opacity="1"/><g clip-path="url(#a97f9f4cae)"><path fill="#1b75bb" d="M 197.738281 259.035156 L 197.738281 315.761719 L 195.261719 315.636719 C 146.089844 313.3125 109.351562 292.253906 86.0625 253.027344 C 73.125 231.226562 66.644531 208.847656 66.808594 186.519531 C 66.976562 164.195312 73.78125 141.90625 87.03125 120.273438 C 110.550781 81.894531 146.929688 61.390625 195.179688 59.339844 L 197.65625 59.238281 L 197.65625 115.816406 L 195.367188 115.902344 C 150.015625 117.636719 125.101562 153.601562 124.695312 186.570312 C 124.265625 220.777344 151.179688 258.195312 195.414062 258.992188 Z M 197.738281 259.035156 " fill-opacity="1" fill-rule="nonzero"/></g><g clip-path="url(#c45e7c3e44)"><path fill="#7ed957" d="M 257.097656 277.132812 C 257.097656 257.046875 257.097656 237.34375 257.097656 217.09375 C 237.039062 217.09375 217.25 217.09375 197.183594 217.09375 C 196.984375 215.429688 196.730469 214.28125 196.730469 213.125 C 196.710938 198.515625 196.773438 183.90625 196.6875 169.296875 C 196.671875 166.445312 197.113281 164.914062 200.554688 164.925781 C 235.648438 165.03125 270.738281 164.996094 305.832031 165.007812 C 306.566406 165.007812 307.300781 165.136719 308.339844 165.226562 C 308.339844 202.507812 308.339844 239.625 308.339844 277.128906 C 291.503906 277.132812 274.601562 277.132812 257.097656 277.132812 Z M 257.097656 277.132812 " fill-opacity="1" fill-rule="nonzero"/></g></svg>