<svg width="42" height="42" viewBox="0 0 42 42" fill="none" xmlns="http://www.w3.org/2000/svg">
<path d="M36.75 33.25V21.4672C36.75 20.5177 36.5568 19.5782 36.1823 18.7058C35.8077 17.8333 35.2596 17.0462 34.5712 16.3922L23.4115 5.79246C22.761 5.17451 21.8981 4.82996 21.0009 4.82996C20.1037 4.82996 19.2407 5.17451 18.5903 5.79246L7.42875 16.3922C6.74039 17.0462 6.19226 17.8333 5.81771 18.7058C5.44315 19.5782 5.25 20.5177 5.25 21.4672V33.25C5.25 34.1782 5.61875 35.0685 6.27513 35.7248C6.9315 36.3812 7.82174 36.75 8.75 36.75H33.25C34.1783 36.75 35.0685 36.3812 35.7249 35.7248C36.3813 35.0685 36.75 34.1782 36.75 33.25Z" stroke="black" stroke-width="2" stroke-linecap="round" stroke-linejoin="round"/>
</svg>
