<?xml version="1.0" standalone="no"?>
<!DOCTYPE svg PUBLIC "-//W3C//DTD SVG 20010904//EN"
 "http://www.w3.org/TR/2001/REC-SVG-20010904/DTD/svg10.dtd">
<svg version="1.0" xmlns="http://www.w3.org/2000/svg"
 width="112.000000pt" height="112.000000pt" viewBox="0 0 112.000000 112.000000"
 preserveAspectRatio="xMidYMid meet">

<g transform="translate(0.000000,112.000000) scale(0.100000,-0.100000)"
fill="#000000" stroke="none">
<path d="M115 1081 c-37 -21 -58 -42 -78 -79 l-27 -50 0 -393 0 -394 29 -50
c21 -37 42 -58 79 -78 l50 -27 393 0 c391 1 394 1 439 24 26 13 58 41 75 65
l30 43 0 418 0 418 -30 43 c-17 24 -49 52 -75 65 -45 23 -48 23 -440 24 l-395
0 -50 -29z m835 -257 c0 -18 -94 -174 -104 -174 -7 0 -23 12 -37 26 l-24 26
25 21 c14 12 37 30 50 40 14 10 -1 4 -33 -14 l-58 -31 -25 23 c-14 13 -21 26
-15 32 4 4 53 19 107 32 114 27 114 27 114 19z m-658 -36 c-15 -15 -16 -98 -1
-98 5 0 7 -4 4 -10 -3 -5 -22 -10 -41 -10 -19 0 -34 5 -34 10 0 6 5 10 10 10
6 0 10 20 10 45 0 25 -4 45 -10 45 -5 0 -10 5 -10 10 0 6 19 10 42 10 33 0 39
-3 30 -12z m100 -25 l14 -38 14 38 c12 32 18 37 47 37 18 0 33 -4 33 -10 0 -5
-4 -10 -10 -10 -5 0 -10 -20 -10 -45 0 -25 5 -45 10 -45 6 0 10 -4 10 -10 0
-5 -15 -10 -34 -10 -19 0 -38 5 -41 10 -3 6 -2 10 3 10 5 0 12 14 14 32 5 28
4 29 -9 13 -7 -11 -13 -24 -13 -31 0 -6 -6 -17 -14 -23 -12 -10 -18 -5 -34 31
l-20 43 -1 -32 c-1 -18 4 -33 9 -33 6 0 10 -4 10 -10 0 -5 -13 -10 -30 -10
-29 0 -40 13 -20 25 6 3 10 24 10 46 0 21 -4 39 -10 39 -5 0 -10 5 -10 10 0 6
15 10 34 10 29 0 35 -4 48 -37z m258 12 c0 -27 -15 -34 -24 -10 -3 8 -17 15
-31 15 -16 0 -25 -6 -25 -15 0 -8 5 -15 10 -15 6 0 10 5 10 10 0 6 5 10 10 10
6 0 10 -13 10 -30 0 -16 -4 -30 -10 -30 -5 0 -10 5 -10 10 0 6 -4 10 -10 10
-5 0 -10 -9 -10 -20 0 -13 7 -20 20 -20 11 0 25 9 32 20 18 28 28 25 28 -10
l0 -30 -64 0 c-36 0 -68 5 -71 10 -3 6 -1 10 4 10 6 0 11 20 11 45 0 25 -4 45
-10 45 -5 0 -10 5 -10 10 0 6 30 10 70 10 68 0 70 -1 70 -25z m150 -106 c0 -7
-31 -22 -35 -17 -1 2 -5 16 -9 31 l-7 29 25 -19 c14 -10 26 -21 26 -24z m-416
-61 c11 -16 16 -47 16 -106 0 -75 -2 -85 -25 -107 -20 -21 -34 -25 -85 -25
l-60 0 0 -40 c0 -36 -2 -40 -25 -40 l-25 0 0 152 c0 189 0 188 111 188 69 0
80 -2 93 -22z m234 10 c8 -8 12 -47 12 -110 0 -124 -10 -138 -99 -138 -84 0
-111 23 -111 94 0 77 13 89 99 94 101 6 89 26 -17 30 -74 3 -82 5 -82 22 0 18
7 20 93 20 59 0 97 -4 105 -12z m84 -90 l3 -103 55 0 55 0 3 103 c3 101 3 102
27 102 l25 0 0 -141 c0 -135 -7 -173 -34 -191 -6 -4 -51 -8 -99 -8 -86 0 -88
1 -85 23 3 20 9 22 86 25 64 2 82 6 82 17 0 12 -14 15 -59 15 -44 0 -65 5 -85
21 -25 20 -26 24 -26 130 l0 109 25 0 c24 0 24 -1 27 -102z" fill="red"/>
<path d="M237 584 c-4 -4 -7 -43 -7 -86 l0 -79 58 3 57 3 0 80 0 80 -50 3
c-28 2 -54 0 -58 -4z" fill="red"/>
<path d="M464 496 c-3 -8 -4 -27 -2 -43 3 -27 5 -28 63 -28 l60 0 0 40 0 40
-58 3 c-43 2 -59 -1 -63 -12z" fill="red"/>
</g>
</svg>
