<?xml version="1.0" standalone="no"?>
<!DOCTYPE svg PUBLIC "-//W3C//DTD SVG 20010904//EN"
 "http://www.w3.org/TR/2001/REC-SVG-20010904/DTD/svg10.dtd">
<svg version="1.0" xmlns="http://www.w3.org/2000/svg"
 width="240.000000pt" height="240.000000pt" viewBox="0 0 240.000000 240.000000"
 preserveAspectRatio="xMidYMid meet">

<g transform="translate(0.000000,240.000000) scale(0.100000,-0.100000)"
fill="#000000" stroke="none">
<path d="M1755 1961 c-27 -11 -298 -105 -601 -210 -304 -104 -567 -197 -585
-206 -99 -50 -133 -130 -88 -205 46 -74 140 -125 324 -173 l90 -24 125 104
c171 143 382 284 486 323 40 15 28 4 -36 -35 -85 -52 -226 -163 -292 -231 -65
-68 -138 -170 -138 -193 0 -9 24 -29 57 -46 168 -88 282 -269 299 -476 5 -51
11 -78 18 -76 26 9 74 90 105 178 18 52 121 335 228 629 208 572 211 586 165
633 -28 28 -96 31 -157 8z" fill="red"/>
<path d="M784 841 c-53 -24 -109 -91 -123 -148 -35 -136 73 -273 214 -273 100
0 192 73 215 171 32 134 -75 269 -215 269 -27 0 -68 -9 -91 -19z" fill="red"/>
</g>
</svg>
