<svg width="356" height="237" viewBox="0 0 356 237" fill="none" xmlns="http://www.w3.org/2000/svg">
<g clip-path="url(#clip0_94_512)">
<path d="M356 0H0V237H356V0Z" fill="#FFFFFF00"/>
<path d="M235.963 37.4782H228.002V29.5283H235.963V37.4782ZM228.312 37.1687H235.653V29.8378H228.312V37.1687Z" fill="#B4EFFF"/>
<path d="M229.044 32.8283L231.955 34.9978L230.862 35.0087L239.209 26.8421C239.271 26.7824 239.369 26.7833 239.429 26.8445C239.485 26.9018 239.488 26.9919 239.438 27.0521L231.966 36.0245L231.916 36.0842C231.685 36.3619 231.272 36.3999 230.994 36.169C230.947 36.1302 230.906 36.0832 230.873 36.0358L228.821 33.043C228.772 32.9714 228.79 32.8738 228.862 32.825C228.918 32.7856 228.992 32.7894 229.044 32.8283Z" fill="#B4EFFF"/>
<path d="M235.963 47.3901H228.002V39.4402H235.963V47.3901ZM228.312 47.0806H235.653V39.7497H228.312V47.0806Z" fill="#B4EFFF"/>
<path d="M229.044 42.7401L231.955 44.9096L230.862 44.9205L239.209 36.754C239.271 36.6943 239.369 36.6952 239.429 36.7564C239.485 36.8137 239.488 36.9038 239.438 36.964L231.966 45.9363L231.916 45.996C231.685 46.2738 231.272 46.3117 230.994 46.0809C230.947 46.042 230.906 45.9951 230.873 45.9477L228.821 42.9549C228.772 42.8833 228.79 42.7856 228.862 42.7368C228.918 42.6975 228.992 42.7013 229.044 42.7401Z" fill="#B4EFFF"/>
<path d="M235.963 57.3019H228.002V49.3519H235.963V57.3019ZM228.312 56.9919H235.653V49.6615H228.312V56.9919Z" fill="#B4EFFF"/>
<path d="M131.919 63.8691C131.919 71.0687 126.076 76.9041 118.866 76.9041C111.656 76.9041 105.812 71.0687 105.812 63.8691C105.812 63.3614 105.84 62.8581 105.903 62.3637C106.23 59.4709 107.51 56.8686 109.422 54.8735C111.797 52.3846 115.147 50.8341 118.866 50.8341C120.909 50.8341 122.843 51.3057 124.568 52.1442C126.889 53.2643 128.823 55.0593 130.121 57.2677C131.266 59.204 131.919 61.4617 131.919 63.8691Z" fill="white"/>
<path d="M118.866 63.8691L105.903 62.3637C106.23 59.4709 107.511 56.8686 109.422 54.8735L118.866 63.8691Z" fill="#FFA430"/>
<path d="M124.568 52.1447L118.866 63.8696L109.422 54.874C111.797 52.385 115.147 50.8346 118.866 50.8346C120.909 50.8341 122.843 51.3058 124.568 52.1447Z" fill="#24629F"/>
<path d="M130.121 57.2678L118.866 63.8691L124.568 52.1443C126.889 53.2643 128.823 55.0599 130.121 57.2678Z" fill="#FD6E74"/>
<path d="M267.327 73.9354H236.454V94.4885H267.327V73.9354Z" fill="white"/>
<path d="M267.327 73.9354H236.454V76.9439H267.327V73.9354Z" fill="#24629F"/>
<path d="M252.824 78.6816H250.958V80.5454H252.824V78.6816Z" fill="#E5F7F9"/>
<path d="M256.627 78.6816H254.761V80.5454H256.627V78.6816Z" fill="#E5F7F9"/>
<path d="M260.43 78.6816H258.563V80.5454H260.43V78.6816Z" fill="#E5F7F9"/>
<path d="M264.233 78.6816H262.367V80.5454H264.233V78.6816Z" fill="#E5F7F9"/>
<path d="M241.415 81.7114H239.548V83.5752H241.415V81.7114Z" fill="#E5F7F9"/>
<path d="M245.218 81.7114H243.352V83.5752H245.218V81.7114Z" fill="#E5F7F9"/>
<path d="M249.021 81.7114H247.154V83.5752H249.021V81.7114Z" fill="#E5F7F9"/>
<path d="M252.824 81.7114H250.958V83.5752H252.824V81.7114Z" fill="#FD6E74"/>
<path d="M256.627 81.7114H254.76V83.5752H256.627V81.7114Z" fill="#E5F7F9"/>
<path d="M260.43 81.7114H258.563V83.5752H260.43V81.7114Z" fill="#E5F7F9"/>
<path d="M264.233 81.7114H262.367V83.5752H264.233V81.7114Z" fill="#E5F7F9"/>
<path d="M241.415 84.7412H239.548V86.605H241.415V84.7412Z" fill="#E5F7F9"/>
<path d="M245.218 84.7412H243.352V86.605H245.218V84.7412Z" fill="#E5F7F9"/>
<path d="M249.021 84.7412H247.154V86.605H249.021V84.7412Z" fill="#E5F7F9"/>
<path d="M252.824 84.7412H250.958V86.605H252.824V84.7412Z" fill="#E5F7F9"/>
<path d="M256.627 84.7412H254.76V86.605H256.627V84.7412Z" fill="#E5F7F9"/>
<path d="M260.43 84.7412H258.563V86.605H260.43V84.7412Z" fill="#E5F7F9"/>
<path d="M264.233 84.7412H262.367V86.605H264.233V84.7412Z" fill="#E5F7F9"/>
<path d="M241.415 87.771H239.548V89.6348H241.415V87.771Z" fill="#E5F7F9"/>
<path d="M245.218 87.771H243.352V89.6348H245.218V87.771Z" fill="#E5F7F9"/>
<path d="M249.021 87.771H247.154V89.6348H249.021V87.771Z" fill="#E5F7F9"/>
<path d="M252.824 87.771H250.958V89.6348H252.824V87.771Z" fill="#E5F7F9"/>
<path d="M256.627 87.771H254.76V89.6348H256.627V87.771Z" fill="#E5F7F9"/>
<path d="M260.43 87.771H258.563V89.6348H260.43V87.771Z" fill="#E5F7F9"/>
<path d="M264.233 87.771H262.367V89.6348H264.233V87.771Z" fill="#FD6E74"/>
<path d="M241.415 90.8008H239.548V92.6645H241.415V90.8008Z" fill="#E5F7F9"/>
<path d="M245.218 90.8008H243.352V92.6645H245.218V90.8008Z" fill="#FD6E74"/>
<path d="M249.021 90.8008H247.154V92.6645H249.021V90.8008Z" fill="#E5F7F9"/>
<path d="M83.859 49.6491C83.859 50.2819 83.3454 50.7947 82.7117 50.7947C82.078 50.7947 81.5645 50.2819 81.5645 49.6491C81.5645 49.0163 82.078 48.5034 82.7117 48.5034C83.3454 48.5039 83.859 49.0168 83.859 49.6491Z" fill="#B4EFFF"/>
<path d="M89.5548 49.6491C89.5548 50.2819 89.0412 50.7947 88.4075 50.7947C87.7738 50.7947 87.2603 50.2819 87.2603 49.6491C87.2603 49.0163 87.7738 48.5034 88.4075 48.5034C89.0412 48.5039 89.5548 49.0168 89.5548 49.6491Z" fill="#B4EFFF"/>
<path d="M95.2511 49.6491C95.2511 50.2819 94.7375 50.7947 94.1038 50.7947C93.4701 50.7947 92.9565 50.2819 92.9565 49.6491C92.9565 49.0163 93.4701 48.5034 94.1038 48.5034C94.7375 48.5039 95.2511 49.0168 95.2511 49.6491Z" fill="#B4EFFF"/>
<path d="M114.817 92.2972H97.1494V94.2714H114.817V92.2972Z" fill="#B4EFFF"/>
<path d="M105.18 95.6281H97.1494V97.6023H105.18V95.6281Z" fill="#B4EFFF"/>
<path d="M121.489 95.6281H106.045V97.6023H121.489V95.6281Z" fill="#B4EFFF"/>
<path d="M123.343 92.2972H116.053V94.2714H123.343V92.2972Z" fill="#B4EFFF"/>
<path d="M128.161 92.2972H124.331V94.2714H128.161V92.2972Z" fill="#B4EFFF"/>
<path d="M131.102 32.2619L134.013 34.4314L132.92 34.4423L141.268 26.2757C141.329 26.216 141.427 26.2169 141.487 26.2781C141.543 26.3354 141.546 26.4255 141.496 26.4857L134.024 35.458L133.974 35.5178C133.743 35.7955 133.33 35.8335 133.053 35.6026C133.006 35.5637 132.964 35.5168 132.931 35.4694L130.879 32.4766C130.83 32.405 130.848 32.3074 130.92 32.2581C130.976 32.2197 131.05 32.223 131.102 32.2619Z" fill="#B4EFFF"/>
<path d="M124.206 51.3874C124.075 51.3874 123.968 51.2812 123.968 51.1504V47.0114C123.968 46.8806 124.075 46.7744 124.206 46.7744H155.873C156.004 46.7744 156.111 46.8806 156.111 47.0114C156.111 47.1422 156.004 47.2484 155.873 47.2484H124.443V51.1504C124.443 51.2812 124.337 51.3874 124.206 51.3874Z" fill="white"/>
<path d="M101.73 90.4407C101.599 90.4407 101.493 90.3345 101.493 90.2037V67.3455C101.493 67.2147 101.599 67.1085 101.73 67.1085H105.456C105.587 67.1085 105.693 67.2147 105.693 67.3455C105.693 67.4763 105.587 67.5825 105.456 67.5825H101.968V90.2037C101.968 90.3345 101.862 90.4407 101.73 90.4407Z" fill="white"/>
<path d="M258.853 119.486H246.037C245.906 119.486 245.799 119.379 245.799 119.249C245.799 119.118 245.906 119.012 246.037 119.012H258.615V98.2347C258.615 98.1039 258.722 97.9977 258.853 97.9977C258.984 97.9977 259.09 98.1039 259.09 98.2347V119.249C259.09 119.379 258.984 119.486 258.853 119.486Z" fill="white"/>
<path d="M187.336 50.7555H181.007C180.876 50.7555 180.77 50.6493 180.77 50.5185C180.77 50.3877 180.876 50.2815 181.007 50.2815H187.099V42.3022C187.099 42.1714 187.205 42.0652 187.336 42.0652H225.151C225.282 42.0652 225.389 42.1714 225.389 42.3022C225.389 42.433 225.282 42.5392 225.151 42.5392H187.573V50.5185C187.573 50.6493 187.468 50.7555 187.336 50.7555Z" fill="#E5F7F9"/>
<path d="M253.315 56.7592C253.184 56.7592 253.078 56.653 253.078 56.5222V42.5392H240.499C240.368 42.5392 240.262 42.433 240.262 42.3022C240.262 42.1714 240.368 42.0652 240.499 42.0652H253.315C253.446 42.0652 253.552 42.1714 253.552 42.3022V56.5222C253.552 56.6535 253.446 56.7592 253.315 56.7592Z" fill="#E5F7F9"/>
<path d="M185.404 206.756C185.351 204.441 185.227 200.058 185.051 194.361C181.89 195.097 178.632 195.496 175.358 195.705L176.895 206.307L176.899 206.306C176.949 206.754 177.618 212.742 177.71 213.562L200.258 213.519L200.614 211.649L185.404 206.756Z" fill="#BA6141"/>
<path d="M201.746 213.922C202.34 212.942 201.677 211.605 200.691 211.018C199.705 210.432 198.509 210.365 197.374 210.198C194.129 209.718 190.951 208.477 188.497 206.309C188.383 206.209 188.247 206.14 188.098 206.113C186.735 205.87 185.225 205.716 184.146 206.557C183.383 207.151 183.004 208.136 182.241 208.729C181.469 209.329 180.394 209.436 179.447 209.193C178.686 208.998 177.995 208.601 177.362 208.13C177.156 207.977 176.866 208.108 176.843 208.363C176.756 209.296 176.739 210.255 176.615 211.173C176.493 212.075 176.397 213.085 176.95 213.81L201.746 213.922Z" fill="#2E2044"/>
<path d="M121.982 192.982L127.226 186.323C124.766 184.537 122.181 182.891 119.737 181.089C116.604 186.228 114.598 189.53 114.398 189.86C114.386 189.878 114.381 189.887 114.381 189.887L114.382 189.887C114.109 190.257 110.539 195.102 110.049 195.767L125.15 206.855L125.918 205.716L121.981 192.984L121.982 192.982Z" fill="#BA6141"/>
<path d="M129.663 210.554C130.715 210.095 130.945 208.621 130.479 207.574C130.012 206.528 129.074 205.784 128.244 204.994C125.869 202.733 123.991 199.888 123.238 196.703C123.203 196.556 123.132 196.421 123.026 196.314C122.052 195.33 120.908 194.334 119.54 194.4C118.575 194.446 117.696 195.032 116.73 195.077C115.753 195.122 114.813 194.591 114.18 193.847C113.671 193.248 113.336 192.527 113.09 191.777C113.011 191.534 112.698 191.474 112.531 191.668C111.922 192.38 111.354 193.153 110.723 193.832C110.102 194.499 109.441 195.269 109.473 196.179L129.663 210.554Z" fill="#2E2044"/>
<path d="M153.965 85.1427C153.965 85.1427 149.003 92.2115 147.888 98.9304C146.773 105.649 137.961 149.888 137.961 149.888L113.825 189.818L123.157 195.305C123.157 195.305 152.118 159.799 153.737 156.143C155.355 152.488 163.968 118.705 163.968 118.705L175.889 205.696L186.524 204.164L182.075 100.423C182.075 100.423 180.398 89.6301 177.487 86.815L153.965 85.1427Z" fill="#24629F"/>
<path d="M163.969 118.705L167.444 107.21L169.269 157.02L163.969 118.705Z" fill="#2E2044"/>
<g opacity="0.5">
<path d="M163.954 118.862C164.16 117.837 164.416 116.828 164.679 115.82C164.938 114.811 165.232 113.813 165.526 112.814C165.831 111.819 166.137 110.824 166.478 109.84L166.991 108.364C167.179 107.878 167.351 107.386 167.553 106.903C167.455 107.417 167.327 107.922 167.215 108.431L166.828 109.945C166.57 110.954 166.276 111.953 165.98 112.951C165.675 113.946 165.369 114.941 165.027 115.925C164.691 116.91 164.347 117.894 163.954 118.862Z" fill="#24629F"/>
<path d="M166.152 111.611L167.762 123.145L169.324 134.686L172.37 157.777L175.306 180.881L176.736 192.438L178.116 204.002L176.506 192.468L174.945 180.928L171.899 157.837L168.963 134.732L167.534 123.175L166.152 111.611Z" fill="#24629F"/>
<path d="M149.022 155.531C149.273 155.176 149.556 154.932 149.846 154.685C150.146 154.449 150.443 154.221 150.842 154.048C150.727 154.469 150.456 154.79 150.146 155.052C149.828 155.302 149.458 155.501 149.022 155.531Z" fill="#24629F"/>
<path d="M150.76 98.8053L148.477 111.991L146.143 125.166L141.378 151.5C141.372 151.532 141.36 151.562 141.343 151.586L128.483 170.973L122.023 180.646L115.527 190.296L121.843 180.528L128.194 170.782L140.956 151.332L140.922 151.417L145.767 125.098L148.238 111.946L150.76 98.8053Z" fill="#24629F"/>
</g>
<path d="M178.451 31.851C178.602 25.5439 171.641 24.5239 171.641 24.5239L171.099 24.4727C171.099 24.4727 164.06 24.1665 163.03 30.3906C162.87 31.3495 162.794 32.3145 162.796 33.2621C162.544 33.2128 162.27 33.2275 161.985 33.3649C161.084 33.7991 161.671 37.1583 163.548 37.9575C164.441 40.5114 166.119 42.4704 168.557 43.0833C171.422 44.102 174.666 43.7858 175.407 43.3151C175.863 43.0284 176.33 41.9088 176.746 40.5773C176.746 40.5673 176.752 40.5626 176.753 40.5522C176.79 40.4318 176.822 40.3114 176.86 40.1862C177.146 39.2449 177.396 38.2329 177.6 37.3403C177.652 37.1185 177.698 36.9014 177.744 36.6943C177.753 36.6488 177.762 36.6085 177.772 36.563C177.992 35.5482 178.127 34.8348 178.127 34.8348L178.116 34.8391C178.311 33.8674 178.427 32.8686 178.451 31.851Z" fill="#BA6141"/>
<path d="M173.071 35.4951C173.071 35.4951 173.586 35.826 173.546 36.3393C173.507 36.8527 173.151 36.8285 173.151 36.8285C173.151 36.8285 172.677 36.884 172.527 36.8271C172.423 36.7877 172.233 36.5816 172.233 36.5816C172.233 36.5816 171.838 35.2847 173.071 35.4951Z" fill="#CC6A47"/>
<path d="M173.057 36.8389C173.297 36.7578 173.385 36.5275 173.373 36.3464C173.358 36.1516 173.263 35.9682 173.125 35.798C173.058 35.7065 172.986 35.6288 172.901 35.5254C172.795 35.387 172.772 35.2164 172.794 35.0794C172.836 34.8012 172.986 34.5869 173.163 34.413C173.098 34.6504 173.046 34.8884 173.056 35.0922C173.067 35.1927 173.092 35.2747 173.145 35.3207C173.219 35.3975 173.312 35.4942 173.391 35.5932C173.548 35.7961 173.681 36.0734 173.634 36.3649C173.605 36.6588 173.313 36.9038 173.057 36.8389Z" fill="#2E2044"/>
<path d="M172.117 36.5517C172.164 36.4616 172.258 36.4683 172.31 36.5071C172.361 36.5479 172.39 36.6379 172.313 36.7053C172.215 36.6853 172.191 36.6977 172.171 36.6839C172.154 36.6673 172.159 36.6403 172.117 36.5517Z" fill="#2E2044"/>
<path d="M169.274 38.0291C169.169 39.1345 168.186 39.946 167.079 39.8412C165.972 39.7365 165.159 38.7553 165.264 37.6495C165.369 36.5441 166.351 35.7326 167.459 35.8373C168.566 35.9426 169.378 36.9238 169.274 38.0291Z" fill="#CC6A47"/>
<path d="M177.6 37.3394C177.396 38.2319 177.146 39.2439 176.86 40.1853C176.823 40.3104 176.79 40.4313 176.753 40.5512C176.752 40.5617 176.747 40.5659 176.746 40.5763C176.484 40.6702 176.202 40.7053 175.911 40.6778C174.801 40.5726 173.992 39.589 174.097 38.4865C174.202 37.3787 175.182 36.5696 176.291 36.6749C176.818 36.7246 177.274 36.9739 177.6 37.3394Z" fill="#CC6A47"/>
<path d="M168.989 32.5212C169.076 32.3785 169.192 32.252 169.33 32.1472C169.465 32.0373 169.627 31.9638 169.794 31.905C169.962 31.8472 170.143 31.8249 170.32 31.8311C170.498 31.8415 170.674 31.8766 170.833 31.9505C170.963 32.0107 171.019 32.1643 170.959 32.2937C170.909 32.3999 170.797 32.4568 170.686 32.4406L170.675 32.4387C170.545 32.4193 170.419 32.398 170.294 32.3942C170.168 32.3857 170.042 32.3918 169.915 32.4056C169.786 32.4184 169.664 32.4601 169.535 32.5027C169.41 32.5506 169.286 32.6136 169.16 32.6885L169.156 32.6909C169.098 32.7255 169.023 32.7061 168.988 32.6478C168.964 32.607 168.966 32.5587 168.989 32.5212Z" fill="#2E2044"/>
<path d="M176.55 33.2379C176.492 33.0815 176.401 32.935 176.286 32.8065C176.174 32.6734 176.029 32.5705 175.876 32.4814C175.722 32.3932 175.549 32.3373 175.373 32.3098C175.196 32.2866 175.017 32.288 174.847 32.3307C174.708 32.3653 174.624 32.5056 174.659 32.644C174.687 32.7577 174.787 32.8345 174.898 32.8393L174.91 32.8397C175.042 32.8454 175.168 32.8473 175.293 32.8677C175.419 32.8833 175.541 32.9127 175.663 32.9502C175.787 32.9867 175.899 33.0507 176.017 33.1165C176.132 33.1872 176.241 33.2725 176.351 33.3692L176.355 33.372C176.405 33.4171 176.483 33.4123 176.528 33.3616C176.558 33.3265 176.565 33.2787 176.55 33.2379Z" fill="#2E2044"/>
<path d="M171.073 38.9481C171.212 39.0022 171.299 39.0477 171.394 39.0955C171.487 39.1486 171.572 39.196 171.694 39.2837C171.57 39.3738 171.41 39.3567 171.287 39.2927C171.167 39.2249 171.065 39.1007 171.073 38.9481Z" fill="#2E2044"/>
<path d="M170.115 36.974C170.569 37.3812 170.989 37.7457 171.464 38.0168C171.696 38.1614 171.947 38.2628 172.208 38.3514C172.471 38.4477 172.749 38.4832 173.054 38.5501C172.774 38.669 172.454 38.7359 172.14 38.6956C171.824 38.669 171.512 38.5657 171.239 38.4055C170.967 38.2424 170.724 38.0367 170.532 37.7921C170.34 37.5494 170.185 37.2764 170.115 36.974Z" fill="#2E2044"/>
<path d="M162.644 34.9306C162.479 34.8462 162.433 34.6002 162.517 34.4115C162.608 34.2063 162.836 34.0921 163.045 34.0849C163.258 34.0665 163.471 34.156 163.63 34.267C163.792 34.3831 163.912 34.5258 164.021 34.6618C164.442 35.2211 164.685 35.9331 164.593 36.6194C164.322 35.9904 164.039 35.4363 163.656 34.9386C163.47 34.6841 163.277 34.4798 163.037 34.4404C162.919 34.4224 162.792 34.4414 162.709 34.5277C162.621 34.6163 162.562 34.776 162.644 34.9306Z" fill="#2E2044"/>
<path d="M163.449 36.6166C163.267 36.5688 163.128 36.4014 163.075 36.2123C163.016 36.0222 163.043 35.8014 163.152 35.6146C163.268 35.4316 163.452 35.307 163.648 35.2719C163.841 35.233 164.054 35.279 164.18 35.4198C164.001 35.4658 163.879 35.5331 163.775 35.6065C163.674 35.6833 163.593 35.7634 163.543 35.853C163.486 35.9383 163.451 36.0469 163.429 36.1716C163.412 36.2981 163.408 36.437 163.449 36.6166Z" fill="#2E2044"/>
<path d="M169.235 34.6121C169.71 34.8543 170.128 35.1268 170.556 35.2453C170.767 35.3079 170.967 35.3169 171.165 35.2548C171.372 35.1974 171.543 35.0221 171.756 34.8505C171.701 35.105 171.591 35.3913 171.322 35.5563C171.062 35.7321 170.717 35.7425 170.44 35.6639C170.159 35.5795 169.918 35.433 169.718 35.2515C169.517 35.0704 169.347 34.8595 169.235 34.6121Z" fill="#2E2044"/>
<path d="M174.079 35.0708C174.553 35.313 174.971 35.5851 175.4 35.7041C175.61 35.7666 175.81 35.7756 176.008 35.7135C176.216 35.6562 176.386 35.4808 176.599 35.3092C176.545 35.5638 176.434 35.8501 176.165 36.0145C175.905 36.1909 175.56 36.2008 175.283 36.1221C175.002 36.0378 174.761 35.8913 174.561 35.7098C174.361 35.5292 174.191 35.3182 174.079 35.0708Z" fill="#2E2044"/>
<path d="M162.254 35.1344C162.132 34.8367 162.242 34.493 162.505 34.3082C162.923 34.0143 163.162 33.8863 163.632 34.1006C164.382 34.4418 163.693 36.0539 163.693 36.0539L164.926 37.329L164.25 37.7248C164.25 37.7248 162.864 36.6241 162.254 35.1344Z" fill="white"/>
<path d="M179.479 28.2087C179.421 27.1128 179.215 25.9695 178.528 25.1192C177.863 24.2944 176.842 23.8546 175.825 23.5678C172.69 22.6852 169.161 22.9938 166.289 24.5167C165.701 23.937 164.694 23.8465 164.015 24.3158C163.438 24.7182 163.148 25.4097 162.941 26.0805C162.24 28.3898 162.203 30.8432 162.317 33.2582C162.487 33.2265 162.643 33.2322 162.798 33.2611C162.798 33.2592 162.798 33.2573 162.798 33.2549C163.013 33.362 163.269 33.4654 163.422 33.5308C164.142 33.8403 164.971 34.6025 165.513 35.168C166.299 33.6218 166.902 31.9827 167.304 30.2962C167.407 29.8663 167.951 29.7331 168.233 30.0739C168.267 30.1147 168.301 30.155 168.337 30.1929C168.686 30.5545 169.211 30.6726 169.706 30.7631C172.17 31.2143 174.679 31.4191 177.184 31.3736C177.666 31.3646 178.134 31.5561 178.45 31.8903C178.422 32.8975 178.31 33.8825 178.115 34.8409L178.125 34.8324C178.125 34.8324 178.078 35.0756 177.997 35.4775C179.093 33.2284 179.614 30.7067 179.479 28.2087Z" fill="#2E2044"/>
<path d="M168.198 57.3451C169.917 58.2689 171.82 59.0519 173.767 59.2785C174.57 59.3719 175.115 59.325 175.685 59.1287C175.694 59.1007 175.703 59.0718 175.711 59.0439C176.266 57.2631 176.955 55.5301 177.704 53.8218C177.474 53.6872 177.249 53.5568 177.031 53.4327C175.041 52.2965 173.979 48.6353 174.04 46.3478L174.153 42.1401L165.706 41.34L165.025 45.4936C164.655 47.7522 162.922 51.1484 160.754 51.8907C160.588 51.9476 160.415 52.0083 160.242 52.0685C162.902 53.8095 165.398 55.8406 168.198 57.3451Z" fill="#BA6141"/>
<path d="M174.068 45.3097C172.84 45.3069 171.387 45.1229 170.02 44.6376C168.438 44.2404 167.177 43.2762 166.246 41.9514C166.918 42.4738 167.691 42.8662 168.558 43.0824C170.549 43.7915 172.721 43.8526 174.11 43.6649L174.068 45.3097Z" fill="#2E2044"/>
<path d="M164.662 46.9943C164.662 46.9943 164.104 48.6874 163.381 49.6107C163.381 49.6107 169.761 51.8817 170.109 52.3908C170.458 52.8998 172.155 55.9571 172.155 55.9571L173.75 53.4947C174.297 52.6496 174.704 51.7215 174.954 50.7469C174.954 50.7469 174.219 49.2884 174.17 48.1333C174.17 48.1333 176.686 51.3475 177.442 53.006C177.442 53.006 184.762 57.5085 186.241 61.1797C186.241 61.1797 181.14 78.9082 177.83 87.4032C177.83 87.4032 165.503 88.3384 153.967 85.1427C153.967 85.1427 148.605 58.7651 148.527 55.8216C148.527 55.8216 151.561 51.0702 160.871 50.5237C160.87 50.5237 162.694 47.6408 164.662 46.9943Z" fill="#8EE4FD"/>
<g opacity="0.5">
<path d="M160.878 50.7157C160.813 51.148 160.752 51.5817 160.754 52.0116C160.757 52.4401 160.843 52.8658 161.049 53.2142C161.254 53.5668 161.604 53.7962 161.991 53.9498C162.378 54.1062 162.806 54.2005 163.228 54.3394C164.911 54.8845 166.511 55.6951 167.944 56.7336L167.612 56.8047L168.665 55.0561L169.743 53.3232L169.747 53.3161C169.79 53.2478 169.879 53.227 169.948 53.2691C169.968 53.2819 169.984 53.299 169.996 53.3184C170.279 53.7929 170.533 54.2788 170.773 54.7703C171.016 55.2599 171.261 55.7467 171.52 56.2288C171.195 55.788 170.908 55.3197 170.619 54.8561C170.326 54.3939 170.048 53.9252 169.746 53.4767L169.999 53.472L169.017 55.2618L168.009 57.036C167.947 57.145 167.809 57.1834 167.7 57.1213L167.682 57.11L167.677 57.1066C166.263 56.1174 164.723 55.3116 163.097 54.7215C162.695 54.5703 162.272 54.447 161.857 54.2536C161.447 54.065 161.039 53.7649 160.825 53.3393C160.601 52.9198 160.577 52.4449 160.611 52.0059C160.648 51.5623 160.754 51.1347 160.878 50.7157Z" fill="#8EE4FD"/>
<path d="M173.318 55.578C173.591 54.9092 173.893 54.2716 174.18 53.6275C174.468 52.9842 174.749 52.3415 175.028 51.694L175.035 51.677C175.08 51.5736 175.199 51.5262 175.303 51.5703L175.305 51.5713C175.976 51.867 176.575 52.3315 176.975 52.9264C176.392 52.514 175.79 52.1837 175.15 51.967L175.426 51.8443C175.201 52.5278 174.911 53.1895 174.561 53.818C174.211 54.4456 173.81 55.0466 173.318 55.578Z" fill="#8EE4FD"/>
<path d="M172.067 56.6141C172.098 57.1436 172.124 57.6745 172.144 58.2058L172.139 59.8013L172.052 61.3949L171.911 62.9847C171.687 65.1021 171.311 67.1962 170.951 69.2875C170.554 71.3721 170.169 73.4549 169.842 75.5457L169.611 77.1161L169.425 78.6921L169.276 80.2738L169.183 81.8622C169.167 81.3323 169.156 80.8009 169.15 80.2691L169.194 78.6741L169.313 77.0829L169.48 75.4959C169.735 73.3833 170.124 71.293 170.485 69.2031C170.883 67.1199 171.251 65.0347 171.55 62.9406C171.847 60.847 172.041 58.7377 172.067 56.6141Z" fill="#8EE4FD"/>
<path d="M180.166 80.8862C180.341 79.7448 180.567 78.6153 180.8 77.4876C181.028 76.359 181.293 75.239 181.557 74.1189C181.833 73.0017 182.109 71.8845 182.422 70.7758L182.892 69.1135C183.065 68.5632 183.223 68.0095 183.41 67.463C183.327 68.0351 183.215 68.5997 183.118 69.168L182.777 70.8616C182.548 71.9902 182.284 73.1103 182.019 74.2303C181.742 75.3475 181.466 76.4647 181.154 77.5734C180.846 78.6826 180.531 79.7903 180.166 80.8862Z" fill="#8EE4FD"/>
<path d="M184.906 62.3647C184.923 61.6902 185.019 61.0664 185.098 60.4336C185.192 59.8027 185.267 59.1761 185.435 58.5225C185.644 59.1666 185.651 59.8421 185.568 60.4981C185.471 61.1522 185.281 61.8002 184.906 62.3647Z" fill="#8EE4FD"/>
</g>
<path d="M219.775 90.819C220.888 90.9062 222.072 91.0304 223.058 90.5739C223.301 90.4616 223.554 90.2265 223.435 89.9994C223.363 89.8615 223.184 89.8032 223.023 89.7591C222.253 89.5468 221.431 89.5534 220.661 89.3411C221.724 89.2396 222.839 88.9187 223.902 88.8173C224.08 88.8002 224.265 88.7813 224.417 88.6979C224.569 88.6144 224.681 88.4471 224.631 88.2897C224.561 88.0689 224.255 88.0058 224.004 87.9831C222.881 87.8811 221.757 87.7792 220.634 87.6773C221.996 87.6129 223.431 87.5275 224.553 86.8402C224.761 86.7127 224.976 86.5193 224.931 86.2918C224.897 86.125 224.726 86.0013 224.546 85.9572C224.365 85.9131 224.176 85.933 223.992 85.9529C222.788 86.0842 221.585 86.216 220.381 86.3473C221.196 86.1108 222.01 85.8747 222.825 85.6382C223.026 85.5799 223.231 85.5197 223.394 85.3998C223.557 85.2798 223.67 85.0855 223.624 84.8968C223.578 84.7058 223.378 84.5674 223.17 84.5181C222.961 84.4688 222.742 84.492 222.53 84.5162C221.442 84.6418 220.359 84.8001 219.284 84.9916C219.03 85.0367 218.714 85.0627 218.561 84.8698C218.374 84.6361 218.603 84.3309 218.802 84.1133C218.979 83.9199 219.143 83.7071 219.204 83.4606C219.265 83.2141 219.203 82.9264 218.988 82.761C218.747 82.5757 218.382 82.5908 218.103 82.7145C217.824 82.8387 217.609 83.0511 217.389 83.2478C216.62 83.9342 215.705 84.4845 214.707 84.8608C214.137 85.0755 213.522 85.2448 213.077 85.6315C212.576 86.0667 212.368 86.7194 212.328 87.3536C212.259 88.4291 212.645 89.542 213.413 90.3805C213.573 90.5545 213.736 90.7536 213.99 90.7939C214.301 90.8432 214.686 90.7569 215 90.7427C215.736 90.7086 216.474 90.6953 217.212 90.7038C218.067 90.7142 218.922 90.7522 219.775 90.819Z" fill="#BA6141"/>
<path d="M177.442 53.0056C177.442 53.0056 184.332 56.5943 187.221 59.6454C190.109 62.6965 194.429 82.468 194.429 82.468L213.838 84.7826C213.838 84.7826 214.492 89.606 214.163 91.3996C214.163 91.3996 193.886 94.875 185.834 91.8111C185.834 91.8111 178.723 80.5038 176.518 71.0901C174.313 61.6765 177.442 53.0056 177.442 53.0056Z" fill="#8EE4FD"/>
<path d="M180.032 80.946L183.451 67.5413L183.199 87.2322L180.032 80.946Z" fill="#2E2044"/>
<g opacity="0.5">
<path d="M194.358 82.3894C193.835 82.551 193.319 82.5681 192.804 82.551C192.29 82.5193 191.778 82.452 191.272 82.2391C191.796 82.0765 192.312 82.0595 192.827 82.0775C193.341 82.1107 193.853 82.178 194.358 82.3894Z" fill="#8EE4FD"/>
</g>
<path d="M208.252 73.9669L202.754 73.9678L203.861 71.9926L209.359 71.9917L208.252 73.9669Z" fill="#FFA430"/>
<path d="M207.225 76.3767L201.727 76.3776L202.833 74.4024L208.332 74.4015L207.225 76.3767Z" fill="#FD6E74"/>
<path d="M206.196 78.7864L200.698 78.7874L201.805 76.8122L207.304 76.8113L206.196 78.7864Z" fill="#24629F"/>
<path d="M223.266 87.8953L200.736 87.8991L207.301 70.9114C207.399 70.6583 207.643 70.491 207.914 70.491L229.035 70.4877C229.497 70.4877 229.815 70.9508 229.649 71.3812L223.266 87.8953Z" fill="#BECDCF"/>
<path d="M209.597 70.4911L202.87 87.8992L200.734 87.8997L207.298 70.912C207.396 70.6589 207.64 70.4916 207.912 70.4916L209.597 70.4911Z" fill="#D1E1E3"/>
<path d="M222.622 88.7177L191.577 88.7229C190.913 88.7229 190.375 88.1858 190.375 87.5237V87.1521L223.548 87.1464V87.792C223.548 88.3034 223.133 88.7177 222.622 88.7177Z" fill="#BECDCF"/>
<path d="M223.55 87.1464V87.9792C223.55 88.3878 223.028 88.7182 222.387 88.7182L201.663 88.7215C202.304 88.7215 202.821 88.3911 202.821 87.9825V87.1497L223.55 87.1464Z" fill="#D1E1E3"/>
<g opacity="0.5">
<path d="M218.053 79.8605C218.077 80.89 217.21 81.8883 216.096 81.9338C215.553 81.9646 214.985 81.7717 214.567 81.3873C214.149 81.0043 213.902 80.4355 213.9 79.861C213.901 79.287 214.147 78.7172 214.566 78.3337C214.983 77.9479 215.552 77.7555 216.095 77.7863C217.21 77.8323 218.077 78.8314 218.053 79.8605ZM218.053 79.8605C218.051 79.3476 217.831 78.8414 217.456 78.5015C217.082 78.1603 216.576 77.9944 216.095 78.0247C215.108 78.074 214.355 78.9585 214.375 79.861C214.354 80.763 215.107 81.6498 216.096 81.6982C216.577 81.7281 217.083 81.5617 217.457 81.2199C217.831 80.8796 218.051 80.3734 218.053 79.8605Z" fill="#BECDCF"/>
<path d="M219.775 86.3188C220.208 86.1316 220.641 86.0898 221.074 86.0818C221.506 86.0884 221.94 86.1306 222.373 86.3183C221.94 86.5065 221.507 86.5482 221.074 86.5553C220.641 86.5473 220.208 86.5055 219.775 86.3188Z" fill="#BECDCF"/>
<path d="M221.436 85.5779C221.689 85.3912 221.941 85.349 222.193 85.3409C222.446 85.3481 222.698 85.3898 222.95 85.5779C222.698 85.7656 222.446 85.8078 222.193 85.8149C221.941 85.8069 221.688 85.7647 221.436 85.5779Z" fill="#BECDCF"/>
<path d="M210.101 71.2707C210.571 71.0835 211.042 71.0417 211.512 71.0337C211.983 71.0403 212.453 71.0825 212.923 71.2702C212.453 71.4584 211.983 71.5001 211.512 71.5072C211.042 71.4996 210.571 71.4574 210.101 71.2707Z" fill="#BECDCF"/>
<path d="M191.295 88.101C191.608 87.9143 191.92 87.8721 192.233 87.864C192.545 87.8706 192.858 87.9128 193.17 88.1005C192.858 88.2887 192.545 88.3304 192.233 88.3375C191.92 88.3295 191.608 88.2878 191.295 88.101Z" fill="#BECDCF"/>
</g>
<path d="M222.966 72.187L227.318 72.186C227.318 72.186 227.437 74.9509 228.821 76.4122L223.758 76.4132C223.758 76.4132 222.808 73.846 222.966 72.187Z" fill="#FFA430"/>
<path d="M170.88 84.2772C171.119 83.9629 171.071 83.5245 170.772 83.2974L170.051 82.7495L169.986 82.7007L156.754 72.6471C156.455 72.4201 156.019 72.4907 155.78 72.8045L141.916 90.9999C141.676 91.3142 141.725 91.7526 142.023 91.9797L154.778 101.671C155.077 101.898 155.513 101.828 155.753 101.514L165.687 88.4763C165.926 88.1626 166.362 88.0919 166.661 88.319L166.841 88.456C167.14 88.683 167.577 88.6124 167.816 88.2986L170.88 84.2772Z" fill="#E8952C"/>
<path d="M170.146 83.7193C170.385 83.4051 170.336 82.9666 170.038 82.7396L169.316 82.1916L169.252 82.1428L156.02 72.0893C155.721 71.8622 155.285 71.9328 155.045 72.2466L141.182 90.4421C140.943 90.7558 140.991 91.1948 141.29 91.4218L154.044 101.113C154.343 101.34 154.78 101.27 155.019 100.956L164.953 87.9185C165.192 87.6042 165.628 87.5341 165.927 87.7611L166.108 87.8981C166.407 88.1251 166.843 88.0545 167.082 87.7407L170.146 83.7193Z" fill="#FFA430"/>
<path d="M161.122 88.8286L149.827 84.9148L150.929 82.0167L162.224 85.9305L161.122 88.8286Z" fill="white"/>
<path d="M175.338 103.557L169.211 101.538L171.72 90.7023L179.778 93.3567L175.338 103.557Z" fill="white"/>
<path d="M176.645 101.432L169.427 99.0541L170.793 93.5098L178.85 96.1642L176.645 101.432Z" fill="#FD6E74"/>
<path d="M180.324 92.7643L171.651 89.9071L171.254 91.1086L179.927 93.9658L180.324 92.7643Z" fill="#FD6E74"/>
<path d="M179.632 92.813L172.162 90.352C172.391 89.6576 173.141 89.2808 173.836 89.5097L180.047 91.556L179.632 92.813Z" fill="#FD6E74"/>
<path d="M171.336 101.802C172.375 102.212 173.47 102.678 174.547 102.531C174.812 102.495 175.123 102.345 175.076 102.093C175.047 101.94 174.894 101.832 174.753 101.742C174.08 101.313 173.292 101.078 172.618 100.649C173.664 100.863 174.824 100.884 175.87 101.1C176.045 101.136 176.227 101.172 176.397 101.136C176.568 101.101 176.723 100.974 176.722 100.809C176.721 100.578 176.446 100.427 176.213 100.332C175.169 99.9046 174.126 99.4775 173.082 99.0499C174.403 99.3884 175.799 99.7278 177.074 99.4002C177.311 99.3396 177.573 99.2177 177.597 98.9869C177.614 98.8177 177.487 98.6494 177.328 98.5541C177.168 98.4593 176.981 98.4224 176.799 98.3878C175.61 98.1602 174.421 97.9327 173.232 97.7052C174.081 97.7185 174.929 97.7317 175.778 97.7445C175.986 97.7479 176.2 97.7502 176.391 97.6834C176.582 97.6166 176.748 97.4644 176.76 97.2705C176.771 97.0738 176.621 96.8833 176.436 96.7752C176.251 96.6667 176.036 96.6245 175.825 96.5856C174.748 96.3861 173.667 96.2197 172.583 96.087C172.327 96.0557 172.017 95.9879 171.927 95.7585C171.818 95.4807 172.126 95.256 172.381 95.1063C172.607 94.9735 172.827 94.8181 172.957 94.6005C173.088 94.3829 173.113 94.0895 172.956 93.8682C172.78 93.6203 172.427 93.5274 172.124 93.5643C171.821 93.6008 171.553 93.7407 171.284 93.8644C170.347 94.2948 169.311 94.5522 168.246 94.619C167.638 94.6569 167 94.638 166.462 94.8768C165.855 95.1456 165.464 95.7087 165.239 96.3026C164.856 97.3104 164.898 98.4873 165.385 99.5149C165.486 99.7278 165.584 99.9662 165.815 100.079C166.098 100.218 166.491 100.249 166.795 100.327C167.509 100.51 168.218 100.715 168.921 100.939C169.735 101.2 170.541 101.488 171.336 101.802Z" fill="#BA6141"/>
<path d="M160.87 50.5237C160.87 50.5237 151.571 50.9522 146.155 56.9464C140.738 62.9401 132.792 85.5177 134.218 88.9063C135.645 92.2949 145.387 99.3281 165.364 100.665C165.364 100.665 167.216 97.9047 166.896 93.7477L146.889 85.1868L154.482 72.1779L160.87 50.5237Z" fill="#8EE4FD"/>
<g opacity="0.5">
<path d="M154.437 71.9964C154.745 70.7275 155.253 69.523 155.85 68.3698C156.46 67.2227 157.163 66.1202 158.034 65.1466C157.477 66.3259 156.862 67.4493 156.27 68.5897C155.667 69.7235 155.091 70.8673 154.437 71.9964Z" fill="#8EE4FD"/>
<path d="M159.343 68.3068C158.755 68.9073 158.064 69.3662 157.344 69.7676C156.617 70.1558 155.856 70.4886 155.032 70.6569C155.7 70.1468 156.405 69.7477 157.117 69.3519C157.835 68.9694 158.553 68.5926 159.343 68.3068Z" fill="#8EE4FD"/>
<path d="M143.473 85.2053C144.051 85.0465 144.631 84.9707 145.213 84.9219C145.795 84.8778 146.378 84.8607 146.962 84.8844L146.811 85.193C146.586 84.8157 146.372 84.4294 146.206 84.0104C146.548 84.3043 146.845 84.6308 147.129 84.9664C147.195 85.0446 147.186 85.1622 147.107 85.2286C147.078 85.2532 147.043 85.2674 147.008 85.2712L146.977 85.2745C146.396 85.3404 145.813 85.3646 145.229 85.3632C144.646 85.3556 144.061 85.3219 143.473 85.2053Z" fill="#8EE4FD"/>
<path d="M165.708 93.5563C165.846 94.6962 165.722 95.8538 165.453 96.9672C165.17 98.0773 164.738 99.1585 164.08 100.101C164.396 98.9997 164.729 97.9389 164.992 96.8529C165.27 95.7703 165.472 94.6773 165.708 93.5563Z" fill="#8EE4FD"/>
<path d="M152.136 52.8833C153.007 53.0407 153.804 53.5118 154.449 54.119C155.087 54.7347 155.594 55.5088 155.79 56.3715C155.254 55.6752 154.729 55.0348 154.121 54.4617C153.521 53.8801 152.857 53.3857 152.136 52.8833Z" fill="#8EE4FD"/>
<path d="M153.672 54.804C153.773 54.4579 154.022 54.2252 154.299 54.0612C154.583 53.909 154.912 53.8176 155.26 53.9124C155.02 54.1783 154.781 54.3266 154.531 54.4745C154.275 54.6101 154.023 54.7371 153.672 54.804Z" fill="#8EE4FD"/>
</g>
</g>
<defs>
<clipPath id="clip0_94_512">
<rect width="356" height="237" fill="white"/>
</clipPath>
</defs>
</svg>
