<svg width="42" height="42" viewBox="0 0 42 42" fill="none" xmlns="http://www.w3.org/2000/svg">
<path d="M31.7345 19.25C32.7513 28.6562 36.75 31.5 36.75 31.5H5.25C5.25 31.5 10.5 27.7672 10.5 14.7C10.5 11.7302 11.606 8.88125 13.5747 6.78125C15.5435 4.68125 18.2175 3.5 21 3.5C21.5915 3.5 22.1748 3.5525 22.75 3.6575M24.0275 36.75C23.7198 37.2804 23.2782 37.7206 22.7469 38.0267C22.2156 38.3327 21.6132 38.4938 21 38.4938C20.3868 38.4938 19.7844 38.3327 19.2531 38.0267C18.7218 37.7206 18.2802 37.2804 17.9725 36.75M33.25 14C34.6424 14 35.9777 13.4469 36.9623 12.4623C37.9469 11.4777 38.5 10.1424 38.5 8.75C38.5 7.35761 37.9469 6.02226 36.9623 5.03769C35.9777 4.05312 34.6424 3.5 33.25 3.5C31.8576 3.5 30.5223 4.05312 29.5377 5.03769C28.5531 6.02226 28 7.35761 28 8.75C28 10.1424 28.5531 11.4777 29.5377 12.4623C30.5223 13.4469 31.8576 14 33.25 14Z" stroke="white" stroke-width="1.5" stroke-linecap="round" stroke-linejoin="round"/>
</svg>
