<svg width="130" height="130" viewBox="0 0 130 130" fill="none" xmlns="http://www.w3.org/2000/svg">
<path d="M43.5068 64.9999L54.2534 75.7466L81.1201 48.8799M105.766 77.4366L110.603 72.5995C111.601 71.6016 112.393 70.4168 112.933 69.1129C113.473 67.8089 113.751 66.4113 113.751 64.9999C113.751 63.5885 113.473 62.191 112.933 60.887C112.393 59.5831 111.601 58.3983 110.603 57.4004L105.766 52.5633C104.767 51.566 103.975 50.3813 103.435 49.0772C102.895 47.7731 102.618 46.3752 102.619 44.9637V38.1333C102.619 35.2831 101.487 32.5496 99.4712 30.5342C97.4558 28.5188 94.7224 27.3866 91.8722 27.3866H85.0364C83.6249 27.3879 82.227 27.1106 80.9229 26.5706C79.6188 26.0305 78.4341 25.2384 77.4368 24.2395L72.5997 19.4024C71.6017 18.4044 70.417 17.6126 69.113 17.0725C67.8091 16.5323 66.4115 16.2543 65.0001 16.2543C63.5887 16.2543 62.1911 16.5323 60.8872 17.0725C59.5832 17.6126 58.3985 18.4044 57.4005 19.4024L52.5634 24.2395C51.5661 25.2384 50.3814 26.0305 49.0773 26.5706C47.7732 27.1106 46.3754 27.3879 44.9639 27.3866H38.1334C36.7217 27.3859 35.3237 27.6633 34.0192 28.2031C32.7147 28.7428 31.5294 29.5343 30.5309 30.5323C29.5324 31.5303 28.7403 32.7153 28.1999 34.0195C27.6595 35.3237 27.3814 36.7215 27.3814 38.1333V44.9691C27.3814 47.8237 26.2493 50.5537 24.2343 52.5687L19.3972 57.4058C18.3991 58.4037 17.6074 59.5885 17.0672 60.8924C16.527 62.1964 16.249 63.594 16.249 65.0054C16.249 66.4168 16.527 67.8143 17.0672 69.1183C17.6074 70.4222 18.3991 71.607 19.3972 72.6049L24.2343 77.442C26.2493 79.457 27.3814 82.187 27.3814 85.0416V91.8774C27.3814 94.7276 28.5136 97.4611 30.529 99.4765C32.5444 101.492 35.2778 102.624 38.128 102.624H44.9639C47.8184 102.624 50.5484 103.756 52.5634 105.771L57.4005 110.608C58.3985 111.606 59.5832 112.398 60.8872 112.938C62.1911 113.478 63.5887 113.756 65.0001 113.756C66.4115 113.756 67.8091 113.478 69.113 112.938C70.417 112.398 71.6017 111.606 72.5997 110.608L77.4368 105.771C79.4577 103.764 82.1879 102.633 85.0364 102.624H91.8722C94.7224 102.624 97.4558 101.492 99.4712 99.4765C101.487 97.4611 102.619 94.7276 102.619 91.8774V85.0416C102.619 82.187 103.751 79.4516 105.766 77.4366Z" stroke="#7ED957" stroke-width="4" stroke-linecap="round" stroke-linejoin="round"/>
</svg>
