<svg width="177" height="177" viewBox="0 0 177 177" fill="none" xmlns="http://www.w3.org/2000/svg">
<path d="M132.75 110.625H118V125.375H132.75M132.75 81.125H118V95.875H132.75M147.5 140.125H88.5V125.375H103.25V110.625H88.5V95.875H103.25V81.125H88.5V66.375H147.5M73.75 51.625H59V36.875H73.75M73.75 81.125H59V66.375H73.75M73.75 110.625H59V95.875H73.75M73.75 140.125H59V125.375H73.75M44.25 51.625H29.5V36.875H44.25M44.25 81.125H29.5V66.375H44.25M44.25 110.625H29.5V95.875H44.25M44.25 140.125H29.5V125.375H44.25M88.5 51.625V22.125H14.75V154.875H162.25V51.625H88.5Z" fill="#4E4E4E"/>
</svg>
